<svg xmlns="http://www.w3.org/2000/svg" version="1.1" xmlns:xlink="http://www.w3.org/1999/xlink" viewBox="0 0 31.497847917945627 6.924215900436"><g transform="matrix(1,0,0,1,1.1592691382754374,2.0318699267805)"><g clip-path="url(#SvgjsClipPath1001)"><g clip-path="url(#SvgjsClipPath10007799ba5c-a875-4e17-958f-603e1667a876)"><path d=" M 28.187593176344286 3.041651106566253 C 28.346570624940163 3.0239869456111563 28.503024621971022 2.993705526830989 28.65443171587186 2.950806850225753 C 28.730135262822277 2.9280957861406276 28.803315358207676 2.902861270490489 28.87397200202807 2.8700564001453084 C 28.942105194283442 2.8372515298001275 29.007714934973805 2.796876304759905 29.058183966274083 2.7464072734596265 L 29.040519805318986 2.7817355953698217 C 29.045566708449012 2.5092028263483197 29.027902547493916 2.2341466057618047 28.992574225583724 1.9666607398703309 C 28.97238661306361 1.832917806924594 28.947152097413472 1.701698325543871 28.90425342080824 1.5805726504232034 C 28.884065808288124 1.5200098128628698 28.856307841072972 1.4644938784325645 28.826026422292806 1.4165482986972995 C 28.805838809772695 1.386266879917133 28.75789323003743 1.3509385580069382 28.704900747172136 1.3206571392267716 C 28.59891578144155 1.2600943016664377 28.47274320319086 1.212148721931174 28.344047173375145 1.1692500453259371 C 28.217874595124453 1.126351368720701 28.08665511374373 1.0910230468105064 27.955435632363006 1.0582181764653253 C 27.692996669601563 0.992608435774964 27.42298735214507 0.9370925013446583 27.1555014862536 0.891670373174408 C 26.88549216879711 0.8462482450041575 26.615482851340627 0.8083964715289493 26.342950082319124 0.7755916011837682 C 26.206683697808373 0.7604508917936852 26.07041731329762 0.7453101824036015 25.936674380351885 0.7352163761435462 C 25.868541188096508 0.7301694730135184 25.800407995841134 0.7251225698834904 25.73479825515077 0.7225991183184768 C 25.664141611330383 0.717552215188449 25.606102225335064 0.7200756667534631 25.52030487212459 0.712505312058421 C 25.358803971963702 0.6973646026683373 25.199826523367825 0.6393252166730177 25.063560138857074 0.551004411897531 C 24.947481366866434 0.4778243165121274 24.831402594875794 0.4046442211267245 24.715323822885154 0.3339875773063352 C 24.480642827338862 0.19267428966555666 24.243438380227555 0.05388445358979177 24.003710481551234 -0.0722881246609034 C 23.766506034439928 -0.19846070291159856 23.519207781068566 -0.3044456686421826 23.26433917300216 -0.3877195702876414 C 23.138166594751464 -0.43061824689287775 23.006947113370742 -0.46594656880307245 22.875727631990017 -0.4987514391482531 C 22.744508150609295 -0.5315563094934339 22.613288669228574 -0.5567908251435729 22.479545736282837 -0.5820253407937119 C 22.21205987039136 -0.6274474689639622 21.942050552934873 -0.6552054361791151 21.66699433234836 -0.6678226940041847 C 21.394461563326857 -0.6829634033942682 21.119405342740343 -0.6829634033942682 20.84687257371884 -0.6703461455691986 C 20.57433980469734 -0.6577288877441291 20.301807035675836 -0.6299709205289761 20.029274266654333 -0.5895956954887538 C 19.759264949197846 -0.5466970188835174 19.489255631741358 -0.49118108445321146 19.2242932174149 -0.4180009890678082 C 18.95933080308844 -0.33725053898736357 18.69436838876198 -0.25650008890691867 18.439499780695577 -0.1555620263063625 C 18.310803750879867 -0.10761644657109837 18.18463117262917 -0.052100512140792365 18.05593514281346 0.0008919707244996466 C 17.92976256456277 0.05388445358979155 17.806113437877087 0.11697074271513919 17.67994085962639 0.17501012871045907 C 18.159396656979034 -0.1025695434410705 18.666610421546828 -0.3347270874223496 19.194011798634733 -0.5113686969733229 C 19.458974212961195 -0.5971660501837956 19.72898353041768 -0.6678226940041849 20.004039751004196 -0.7233386284344909 C 20.2765725200257 -0.7788545628647967 20.554152192177227 -0.8167063363400053 20.83425531589377 -0.8419408519901443 C 21.1118349880453 -0.8646519160752695 21.394461563326857 -0.8747457223353251 21.67204123547839 -0.8722222707703112 C 21.949620907629917 -0.8671753676402834 22.232247482911475 -0.8570815613802277 22.51235060662802 -0.824276691035047 C 23.07508030562612 -0.7611904019096993 23.630239649929177 -0.5946425986187818 24.139976866061986 -0.3422974421173913 C 24.392322022563377 -0.21360141230168217 24.63457337280471 -0.07733502779093149 24.87430127148103 0.06650171141486105 C 24.9954269466017 0.13715835523525022 25.11402917015735 0.2103384506206536 25.232631393713007 0.28604199757107085 C 25.331046004748547 0.34660483513140417 25.439554422044147 0.384456608606613 25.55058629090476 0.39959731799669607 C 25.601055322205035 0.40464422112672405 25.681805772285482 0.40716767269173815 25.749938964540856 0.4122145758217661 C 25.820595608361245 0.4172614789517939 25.891252252181637 0.4223083820818214 25.961908896002022 0.4273552852118492 C 26.103222183642803 0.4399725430369186 26.242012019718565 0.4551132524270023 26.38080185579433 0.47277741338209966 C 26.658381527945863 0.5081057352922942 26.935961200097392 0.5535278634625442 27.20849396911889 0.6090437978928502 C 27.483550189705408 0.6645597323231565 27.75608295872691 0.7276460214485037 28.026092276183398 0.8058730199639346 C 28.159835209129135 0.8462482450041571 28.296101593639882 0.8891469216093932 28.42984452658562 0.9421394044746858 C 28.56358745953136 0.9951318873399777 28.69480694091208 1.0506478217702833 28.826026422292806 1.1313982718507285 C 28.858831292637984 1.15158588437084 28.89163616298317 1.1742969484559649 28.92191758176333 1.2020549156711176 C 28.937058291153416 1.2171956250612008 28.954722452108513 1.2323363344512845 28.969863161498594 1.2474770438413683 C 28.977433516193635 1.2575708501014233 28.985003870888683 1.2651412047964654 28.992574225583724 1.2752350110565205 C 29.000144580278764 1.2853288173165764 29.007714934973805 1.2979460751416458 29.012761838103835 1.3055164298366875 C 29.053137063144057 1.3761730736570765 29.08089503035921 1.4493531690424803 29.10108264287932 1.5225332644278833 C 29.14145786791954 1.6663700036336757 29.15912202887464 1.8076832912744543 29.169215835134693 1.9515200304802467 C 29.17930964139475 2.0928333181210252 29.181833092959764 2.2341466057618042 29.176786189829734 2.3729364418375685 C 29.17173928669971 2.514249729478347 29.164168932004664 2.653039565554112 29.149028222614582 2.7918294016298764 L 29.146504771049567 2.814540465715002 L 29.131364061659482 2.8271577235400716 C 29.06323086940411 2.8851971095353917 28.985003870888676 2.9205254314455855 28.90677687237325 2.948283398660739 C 28.828549873857817 2.9760413658758917 28.747799423777373 2.99370552683099 28.66957242526194 3.008846236221073 C 28.588821975181496 3.0239869456111563 28.510594976666063 3.0315573003061984 28.42984452658562 3.0366042034362257 C 28.349094076505175 3.041651106566253 28.26834362642473 3.044174558131268 28.187593176344286 3.041651106566253 Z" fill="#102036" transform="matrix(1,0,0,1,0,0)" fill-rule="nonzero"></path></g><g clip-path="url(#SvgjsClipPath10007799ba5c-a875-4e17-958f-603e1667a876)"><path d=" M 27.120173164343406 1.416548298697299 C 26.481739918394887 1.416548298697299 25.961908896002022 1.93385586952515 25.961908896002022 2.5748125670386814 C 25.961908896002022 3.215769264552212 26.479216466829875 3.7330768353800625 27.120173164343406 3.7330768353800625 C 27.75860641029192 3.7330768353800625 28.278437432684786 3.215769264552213 28.278437432684786 2.5748125670386814 C 28.278437432684786 1.9338558695251495 27.761129861856936 1.416548298697299 27.120173164343406 1.416548298697299 Z M 27.120173164343406 3.056791815956337 C 26.85268729845193 3.056791815956337 26.63819391542575 2.8397749813651414 26.63819391542575 2.574812567038682 C 26.63819391542575 2.3073267011472085 26.855210750016944 2.092833318121026 27.120173164343406 2.092833318121026 C 27.38765903023488 2.092833318121026 27.60215241326106 2.309850152712222 27.60215241326106 2.574812567038682 C 27.60215241326106 2.8422984329301553 27.38765903023488 3.056791815956337 27.120173164343406 3.056791815956337 Z" fill="#102036" transform="matrix(1,0,0,1,0,0)" fill-rule="nonzero"></path></g><g clip-path="url(#SvgjsClipPath10007799ba5c-a875-4e17-958f-603e1667a876)"><path d=" M 18.585859971466384 1.416548298697299 C 17.947426725517865 1.416548298697299 17.427595703125 1.93385586952515 17.427595703125 2.5748125670386814 C 17.427595703125 3.215769264552212 17.94490327395285 3.7330768353800625 18.585859971466384 3.7330768353800625 C 19.226816668979914 3.7330768353800625 19.744124239807764 3.215769264552213 19.744124239807764 2.5748125670386814 C 19.744124239807764 1.9338558695251495 19.226816668979914 1.416548298697299 18.585859971466384 1.416548298697299 Z M 18.585859971466384 3.056791815956337 C 18.318374105574907 3.056791815956337 18.103880722548727 2.8397749813651414 18.103880722548727 2.574812567038682 C 18.103880722548727 2.3073267011472085 18.320897557139922 2.092833318121026 18.585859971466384 2.092833318121026 C 18.853345837357857 2.092833318121026 19.067839220384037 2.309850152712222 19.067839220384037 2.574812567038682 C 19.067839220384037 2.8422984329301553 18.853345837357857 3.056791815956337 18.585859971466384 3.056791815956337 Z" fill="#102036" transform="matrix(1,0,0,1,0,0)" fill-rule="nonzero"></path></g><g clip-path="url(#SvgjsClipPath10007799ba5c-a875-4e17-958f-603e1667a876)"><path d=" M 26.358090791709206 3.0643621706513784 L 19.875343721188486 2.950806850225753 L 26.358090791709206 2.839774981365141 Z" fill="#102036" transform="matrix(1,0,0,1,0,0)" fill-rule="nonzero"></path></g><g clip-path="url(#SvgjsClipPath10007799ba5c-a875-4e17-958f-603e1667a876)"><path d=" M 20.612191578172546 -0.3725788608975583 C 20.612191578172546 -0.3725788608975583 20.851919476848867 -0.4255713437628503 21.697275751128526 -0.39781337654769733 C 22.6183355723586 -0.36500850620251646 23.514160877938536 -0.06976467309588985 24.276243250572737 0.4475428977319602 L 24.722894177580194 0.7503570855336288 L 21.553439011922734 0.6494190229330727" fill="#3682ae" transform="matrix(1,0,0,1,0,0)" fill-rule="nonzero"></path></g><g clip-path="url(#SvgjsClipPath10007799ba5c-a875-4e17-958f-603e1667a876)"><path d=" M 25.227584490582977 0.6317548619779756 C 25.220014135887936 0.5636216697226 25.222537587452948 0.5055822837272805 25.230107942147992 0.44754289773196065 C 25.237678296843033 0.389503511736641 25.252819006233118 0.33651102887134887 25.270483167188214 0.28604199757107085 C 25.30581148909841 0.1825804834055007 25.358803971963702 0.0892127754999863 25.421890261089047 0.0059388738545275155 L 25.464788937694287 0.2103384506206536 C 25.414319906394006 0.16491632245040355 25.368897778223754 0.11192383958511154 25.328522553183532 0.05388445358979155 C 25.30833494066342 0.023603034809624668 25.28814732814331 -0.006678383970542101 25.27300661875323 -0.04200670588073663 C 25.255342457798132 -0.07733502779093127 25.240201748408047 -0.1126633497011259 25.230107942147995 -0.1530385747413484 C 25.27300661875323 -0.1555620263063624 25.31338184379345 -0.15051512317633442 25.35123361726866 -0.14546822004630666 C 25.38908539074387 -0.1404213169162788 25.424413712654065 -0.1303275106562234 25.459742034564258 -0.12023370439616765 C 25.52787522681963 -0.10004609187605662 25.590961515944983 -0.07228812466090362 25.651524353505316 -0.03948325431572264 L 25.760032770800912 0.02107958324461101 L 25.694423030110553 0.16491632245040355 C 25.6490009019403 0.26080748192093184 25.590961515944983 0.3516517382614326 25.51778142055958 0.4298787367768635 C 25.47992964708437 0.470253961817086 25.439554422044147 0.5081057352922942 25.3941322938739 0.5409106056374753 C 25.341139811008603 0.5762389275476698 25.290670779708325 0.6065203463278366 25.227584490582977 0.6317548619779756 Z" fill="#102036" transform="matrix(1,0,0,1,0,0)" fill-rule="nonzero"></path></g><g clip-path="url(#SvgjsClipPath10007799ba5c-a875-4e17-958f-603e1667a876)"><path d=" M 25.661618159765368 2.617711243643918 L 20.92257612066926 2.617711243643918 L 25.654047805070327 2.30227979801718 Z" fill="#3682ae" transform="matrix(1,0,0,1,0,0)" fill-rule="nonzero"></path></g><g clip-path="url(#SvgjsClipPath10007799ba5c-a875-4e17-958f-603e1667a876)"><path d=" M 24.722894177580194 0.7503570855336288 L 18.394077652525326 0.5535278634625442 L 21.86130010285443 0.4551132524270023 Z" fill="#3682ae" transform="matrix(1,0,0,1,0,0)" fill-rule="nonzero"></path></g></g><g><path d=" M 0.0688447265625 1.1495976562499999 Q 0.050267578125 1.1495976562499999 0.04097900390625 1.1310205078125 Q 0.0316904296875 1.1124433593749998 0.0316904296875 1.0785673828125 Q 0.0316904296875 1.073103515625 0.0316904296875 1.06600048828125 Q 0.0316904296875 1.0588974609375 0.0338759765625 1.038134765625 Q 0.037154296875 0.959455078125 0.111462890625 0.9463417968749999 L 0.1365966796875 0.9441562499999999 Q 0.16173046875 0.9408779296874998 0.1759365234375 0.9283110351562499 Q 0.190142578125 0.915744140625 0.19669921875 0.8927958984375 Q 0.2152763671875 0.8305078124999999 0.233853515625 0.7671269531249999 Q 0.2524306640625 0.70374609375 0.273193359375 0.6414580078125 Q 0.28412109375 0.6064892578125 0.29559521484375 0.5666030273437499 Q 0.3070693359375 0.526716796875 0.32072900390625 0.48737695312499996 Q 0.334388671875 0.44803710937499996 0.35241943359375 0.4097900390624999 Q 0.3704501953125 0.3715429687499999 0.3933984375 0.3398525390625 Q 0.4032333984375 0.3267392578124999 0.4207177734375 0.3125332031249999 Q 0.4382021484375 0.29832714843749986 0.46060400390625 0.28685302734374996 Q 0.483005859375 0.27537890624999983 0.50868603515625 0.2682758789062498 Q 0.5343662109375 0.26117285156250003 0.5595 0.26117285156250003 Q 0.592283203125 0.26117285156250003 0.6239736328125 0.281935546875 Q 0.666591796875 0.31144042968749996 0.7081171875 0.3529658203124999 Q 0.749642578125 0.39449121093749995 0.8010029296875 0.4589648437499999 Q 0.85236328125 0.5234384765624999 0.920115234375 0.6146850585937499 Q 0.9878671875 0.7059316406249999 1.0829384765625 0.8348789062499999 Q 1.0971445312499999 0.8512705078124999 1.11298974609375 0.85946630859375 Q 1.1288349609375 0.8676621093749999 1.1506904296875 0.8676621093749999 L 1.212978515625 0.8676621093749999 Q 1.2512255859374999 0.8676621093749999 1.27253466796875 0.88569287109375 Q 1.29384375 0.9037236328124999 1.29384375 0.9354140624999999 Q 1.29384375 0.941970703125 1.29329736328125 0.950712890625 Q 1.2927509765625 0.959455078125 1.28947265625 0.968197265625 L 1.2687099609375 1.029392578125 Q 1.2665244140625 1.038134765625 1.265431640625 1.04469140625 Q 1.2643388671875 1.0512480468749998 1.2643388671875 1.0578046875 Q 1.2643388671875 1.0807529296874998 1.2796376953125 1.1047939453125 L 1.3965644531249999 1.2643388671875 Q 1.416234375 1.29384375 1.416234375 1.3200703125 Q 1.416234375 1.3594101562499998 1.3714306640625 1.3889150390625 L 1.3299052734375 1.418419921875 Q 1.3146064453125 1.4282548828125 1.30094677734375 1.43371875 Q 1.287287109375 1.4391826171875 1.2730810546875 1.4391826171875 Q 1.2534111328125 1.4391826171875 1.23647314453125 1.4277084960937498 Q 1.21953515625 1.416234375 1.204236328125 1.3965644531249999 Q 1.151783203125 1.322255859375 1.09878369140625 1.2501328125 Q 1.0457841796875 1.178009765625 0.9911455078125 1.1069794921875 Q 0.96601171875 1.0720107421875 0.924486328125 1.0720107421875 Q 0.79116796875 1.0774746093749998 0.66058154296875 1.08676318359375 Q 0.5299951171875 1.0960517578125 0.3988623046875 1.1091650390624999 Q 0.351873046875 1.1135361328125 0.3398525390625 1.1594326171875 L 0.290677734375 1.339740234375 Q 0.2710078125 1.4118632812499998 0.203255859375 1.4118632812499998 L 0.185771484375 1.4118632812499998 L 0.1518955078125 1.4074921875 Q 0.1147412109375 1.4042138671875 0.09561767578125 1.3845439453125 Q 0.076494140625 1.3648740234374999 0.076494140625 1.3331835937499998 Q 0.076494140625 1.326626953125 0.0775869140625 1.3189775390624998 Q 0.0786796875 1.311328125 0.080865234375 1.3025859375 Q 0.0863291015625 1.2807304687499999 0.09233935546875 1.2577822265624998 Q 0.098349609375 1.2348339843749998 0.10490625 1.212978515625 Q 0.107091796875 1.204236328125 0.1081845703125 1.19713330078125 Q 0.10927734375 1.1900302734375 0.10927734375 1.1834736328125 Q 0.10927734375 1.1495976562499999 0.08305078125 1.1495976562499999 L 0.0688447265625 1.1495976562499999 M 0.5890048828125 0.5726132812499999 Q 0.5780771484375 0.5627783203125 0.5693349609375 0.5562216796874999 Q 0.5605927734375 0.5496650390625 0.5507578125 0.5496650390625 Q 0.5234384765625 0.5496650390625 0.5125107421875 0.5879121093749999 Q 0.4906552734375 0.6523857421874999 0.47043896484375 0.7152202148437499 Q 0.45022265625 0.7780546875 0.4294599609375 0.8436210937499999 Q 0.4272744140625 0.8490849609375 0.4272744140625 0.8534560546875 Q 0.4272744140625 0.8578271484375 0.4272744140625 0.8632910156249999 Q 0.4272744140625 0.9037236328124999 0.469892578125 0.9037236328124999 L 0.4808203125 0.9037236328124999 Q 0.54638671875 0.8949814453124999 0.611953125 0.8900639648437499 Q 0.67751953125 0.8851464843749999 0.7430859375 0.8818681640624999 Q 0.76494140625 0.8796826171874998 0.77750830078125 0.8703940429687499 Q 0.7900751953125 0.8611054687499999 0.7900751953125 0.8458066406249999 Q 0.7900751953125 0.8316005859375 0.7769619140625 0.8119306640624999 Q 0.7310654296875 0.7507353515624999 0.68462255859375 0.6911791992187499 Q 0.6381796875 0.6316230468749999 0.5890048828125 0.5726132812499999 M 1.4697802734374998 0.8348789062499999 Q 1.4315332031249999 0.8348789062499999 1.40913134765625 0.8168481445312499 Q 1.3867294921875 0.7988173828124999 1.3867294921875 0.76494140625 Q 1.3867294921875 0.7583847656249999 1.38836865234375 0.7512817382812499 Q 1.3900078125 0.7441787109374999 1.392193359375 0.7354365234374999 L 1.39875 0.7113955078124999 Q 1.4151416015625 0.6359941406249999 1.4949140625 0.6327158203125 Q 1.575779296875 0.6305302734374999 1.6555517578124999 0.6294374999999999 Q 1.73532421875 0.6283447265625 1.8150966796874999 0.6283447265625 Q 1.8522509765625 0.6283447265625 1.88776611328125 0.6283447265625 Q 1.92328125 0.6283447265625 1.95825 0.6305302734374999 Q 1.9986826171874998 0.6305302734374999 2.0270947265625 0.6021181640625 L 2.0904755859375 0.5343662109374999 Q 2.1068671875 0.517974609375 2.11397021484375 0.5015830078124999 Q 2.1210732421875 0.4851914062499999 2.1210732421875 0.46989257812499996 Q 2.1210732421875 0.4491298828124999 2.10632080078125 0.43492382812499997 Q 2.091568359375 0.42071777343749994 2.06315625 0.4185322265624999 Q 1.877384765625 0.4185322265624999 1.74898388671875 0.42071777343749994 Q 1.6205830078124999 0.4229033203124999 1.5528310546875 0.4229033203124999 Q 1.4697802734374998 0.4229033203124999 1.4697802734374998 0.3529658203124999 Q 1.4697802734374998 0.34640917968749996 1.470873046875 0.3387597656249999 Q 1.4719658203125 0.3311103515625 1.4741513671875 0.3223681640625 L 1.4807080078125 0.299419921875 Q 1.4981923828125 0.220740234375 1.580150390625 0.220740234375 Q 1.6642939453125 0.21855468749999996 1.7484375 0.2163691406249999 Q 1.8325810546875 0.21418359374999985 1.9178173828124998 0.21418359374999985 Q 1.999775390625 0.21418359374999985 2.0642490234375 0.21582275390624983 Q 2.12872265625 0.21746191406249982 2.18062939453125 0.22401855468749998 Q 2.2325361328125 0.23057519531249993 2.2740615234375 0.2425957031249999 Q 2.3155869140625 0.25461621093749986 2.353833984375 0.27537890624999983 Q 2.3811533203125 0.290677734375 2.3948129882812497 0.30433740234374995 Q 2.40847265625 0.3179970703124999 2.41721484375 0.33329589843749985 Q 2.4226787109375 0.343130859375 2.4265034179687497 0.35351220703124997 Q 2.430328125 0.36389355468749995 2.430328125 0.37809960937499987 Q 2.430328125 0.39886230468749995 2.4215859374999997 0.42071777343749994 Q 2.4117509765625 0.44803710937499996 2.3926274414062503 0.4764492187499999 Q 2.37350390625 0.504861328125 2.3500092773437498 0.5316342773437499 Q 2.3265146484374997 0.5584072265625 2.30192724609375 0.5835410156249999 Q 2.27733984375 0.6086748046874999 2.257669921875 0.6305302734374999 Q 2.255484375 0.6327158203125 2.255484375 0.6370869140625 Q 2.255484375 0.6480146484374999 2.27296875 0.6540249023437499 Q 2.290453125 0.6600351562499999 2.3199580078124997 0.6622207031249999 Q 2.3997304687499996 0.66877734375 2.4773173828125 0.6769731445312499 Q 2.5549042968749998 0.6851689453124999 2.633583984375 0.6960966796874999 Q 2.6674599609375003 0.699375 2.68658349609375 0.7163129882812499 Q 2.7057070312500002 0.7332509765624999 2.7057070312500002 0.7605703125 Q 2.7057070312500002 0.7813330078124999 2.6936865234375 0.8053740234374999 Q 2.690408203125 0.8119306640624999 2.68767626953125 0.8184873046875 Q 2.6849443359375 0.8250439453124999 2.6827587890625 0.8326933593749999 Q 2.6521611328125 0.8971669921874998 2.5909658203125 0.8971669921874998 Q 2.5876875 0.8971669921874998 2.58331640625 0.8960742187499999 Q 2.5789453125 0.8949814453124999 2.5734814453125 0.8949814453124999 Q 2.5122861328125 0.8862392578124999 2.43852392578125 0.87913623046875 Q 2.3647617187499996 0.872033203125 2.29427783203125 0.8665693359375 Q 2.2237939453125 0.8611054687499999 2.16533056640625 0.8578271484375 Q 2.1068671875 0.8545488281249999 2.07626953125 0.8545488281249999 Q 2.0423935546875 0.8545488281249999 2.0161669921875 0.8818681640624999 Q 1.97136328125 0.9299501953124999 1.93475537109375 0.9731147460937499 Q 1.8981474609375 1.0162792968749998 1.859900390625 1.0698251953125 Q 1.84897265625 1.0851240234375 1.8429624023437499 1.0982373046874998 Q 1.8369521484375 1.1113505859375 1.8369521484375 1.125556640625 Q 1.8369521484375 1.1485048828125 1.85498291015625 1.1654428710937499 Q 1.873013671875 1.1823808593749998 1.9047041015625 1.1856591796875 Q 1.9986826171874998 1.1976796875 2.09867138671875 1.19931884765625 Q 2.19866015625 1.2009580078125 2.3046591796875 1.2009580078125 Q 2.3352568359375 1.2009580078125 2.366947265625 1.1998652343749998 Q 2.3986376953125 1.1987724609375 2.430328125 1.1965869140624998 Q 2.515564453125 1.1900302734375 2.515564453125 1.1408554687499999 Q 2.515564453125 1.119 2.53359521484375 1.10534033203125 Q 2.5516259765625 1.0916806640624999 2.5865947265625 1.0916806640624999 Q 2.6106357421875 1.0916806640624999 2.6477900390625 1.0998764648437498 Q 2.6849443359375 1.108072265625 2.7188203125 1.1244638671875 Q 2.7526962890625 1.1408554687499999 2.77728369140625 1.1648964843749998 Q 2.80187109375 1.1889375 2.80187109375 1.2195351562499999 Q 2.80187109375 1.243576171875 2.7876650390625 1.2665244140624998 Q 2.773458984375 1.2894726562499998 2.7505107421875 1.3085961914062498 Q 2.7275625 1.3277197265624998 2.7002431640625 1.34137939453125 Q 2.6729238281249996 1.3550390625 2.646697265625 1.3605029296875 Q 2.55271875 1.3801728515625 2.4275961914062503 1.39164697265625 Q 2.3024736328125 1.4031210937499998 2.17243359375 1.4031210937499998 Q 2.0708056640625 1.4031210937499998 1.9779199218749999 1.39711083984375 Q 1.8850341796875 1.3911005859374999 1.8129111328124998 1.3801728515625 Q 1.7735712890625 1.374708984375 1.733138671875 1.3665131835937498 Q 1.6927060546875 1.3583173828125 1.65828369140625 1.3419257812499998 Q 1.6238613281249998 1.3255341796875 1.5987275390625 1.2982148437499998 Q 1.57359375 1.2708955078125 1.5659443359375 1.226091796875 Q 1.5659443359375 1.2206279296875 1.5648515625 1.2173496093749998 Q 1.5637587890625 1.2140712890624998 1.5637587890625 1.208607421875 Q 1.5637587890625 1.1747314453125 1.5812431640625 1.1337524414062499 Q 1.5987275390625 1.0927734375 1.626046875 1.0512480468749998 Q 1.6533662109375 1.00972265625 1.68560302734375 0.96983642578125 Q 1.71783984375 0.9299501953124999 1.7473447265625 0.8971669921874998 Q 1.765921875 0.8753115234375 1.765921875 0.8589199218749999 Q 1.765921875 0.8458066406249999 1.75280859375 0.83761083984375 Q 1.7396953124999999 0.8294150390624999 1.715654296875 0.8294150390624999 L 1.4697802734374998 0.8348789062499999 L 1.4697802734374998 0.8348789062499999 M 2.8729013671874997 1.0042587890624999 Q 2.8729013671874997 0.985681640625 2.8772724609374998 0.9627333984374999 Q 2.8816435546875 0.9397851562499999 2.8816435546875 0.9124658203124999 Q 2.8816435546875 0.8938886718749999 2.86579833984375 0.8840537109375 Q 2.849953125 0.8742187499999999 2.8302832031249996 0.8621982421875 Q 2.8106132812499998 0.8501777343749999 2.7947680664062498 0.8316005859375 Q 2.7789228515624997 0.8130234375 2.7789228515624997 0.7780546875 Q 2.7789228515624997 0.7529208984374999 2.7925825195312495 0.7277871093749999 Q 2.8062421874999997 0.7026533203124999 2.83246875 0.681890625 Q 2.8969423828124996 0.6338085937499999 2.9663334960937497 0.5955615234374999 Q 3.0357246093749994 0.5573144531249999 3.1051157226562496 0.531087890625 Q 3.1745068359374997 0.504861328125 3.2422587890625 0.49065527343749993 Q 3.3100107421874996 0.4764492187499999 3.3722988281249995 0.4764492187499999 Q 3.4772050781249995 0.4764492187499999 3.56954443359375 0.5152426757812499 Q 3.6618837890625 0.5540361328125 3.73018212890625 0.6212416992187499 Q 3.79848046875 0.6884472656249999 3.8383666992187497 0.7786010742187499 Q 3.8782529296874997 0.8687548828124999 3.8782529296874997 0.9714755859374999 Q 3.8782529296874997 1.0720107421875 3.83618115234375 1.16216455078125 Q 3.7941093749999997 1.2523183593749998 3.7230791015624995 1.3200703125 Q 3.6520488281249994 1.3878222656249999 3.55643115234375 1.4277084960937498 Q 3.4608134765624996 1.4675947265625 3.354814453125 1.4675947265625 Q 3.2510009765624996 1.4675947265625 3.1624863281249995 1.4326259765625 Q 3.0739716796875 1.3976572265625 3.0094980468749997 1.33591552734375 Q 2.9450244140624995 1.274173828125 2.908962890625 1.1894838867187498 Q 2.8729013671874997 1.1047939453125 2.8729013671874997 1.0042587890624999 M 3.3788554687499994 1.2708955078125 Q 3.424751953125 1.2708955078125 3.4739267578124995 1.2523183593749998 Q 3.5231015625 1.2337412109374999 3.5640805664062496 1.1982260742187498 Q 3.6050595703124997 1.1627109375 3.6318325195312497 1.1113505859375 Q 3.65860546875 1.0599902343749998 3.65860546875 0.9955166015624999 Q 3.65860546875 0.9299501953124999 3.634564453125 0.8731259765624999 Q 3.6105234374999995 0.8163017578124999 3.5684516601562497 0.7742299804687499 Q 3.5263798828125 0.7321582031249999 3.4690092773437495 0.7081171875 Q 3.4116386718749996 0.6840761718749999 3.3449794921874996 0.6840761718749999 Q 3.2236816406249997 0.6840761718749999 3.1592080078124996 0.7469106445312499 Q 3.094734375 0.8097451171875 3.094734375 0.9397851562499999 Q 3.094734375 1.0108154296874998 3.1160434570312496 1.07146435546875 Q 3.1373525390624994 1.1321132812499999 3.175599609375 1.17637060546875 Q 3.2138466796875 1.2206279296875 3.2657534179687495 1.2457617187499999 Q 3.3176601562499997 1.2708955078125 3.3788554687499994 1.2708955078125 M 4.03451953125 1.0042587890624999 Q 4.03451953125 0.985681640625 4.038890625 0.9627333984374999 Q 4.04326171875 0.9397851562499999 4.04326171875 0.9124658203124999 Q 4.04326171875 0.8938886718749999 4.02741650390625 0.8840537109375 Q 4.0115712890625 0.8742187499999999 3.9919013671875 0.8621982421875 Q 3.9722314453125 0.8501777343749999 3.95638623046875 0.8316005859375 Q 3.940541015625 0.8130234375 3.940541015625 0.7780546875 Q 3.940541015625 0.7529208984374999 3.9542006835937498 0.7277871093749999 Q 3.9678603515625 0.7026533203124999 3.9940869140625 0.681890625 Q 4.058560546875 0.6338085937499999 4.12795166015625 0.5955615234374999 Q 4.1973427734375 0.5573144531249999 4.26673388671875 0.531087890625 Q 4.336125 0.504861328125 4.403876953125 0.49065527343749993 Q 4.47162890625 0.4764492187499999 4.5339169921875 0.4764492187499999 Q 4.6388232421875 0.4764492187499999 4.73116259765625 0.5152426757812499 Q 4.823501953125 0.5540361328125 4.89180029296875 0.6212416992187499 Q 4.9600986328125 0.6884472656249999 4.9999848632812505 0.7786010742187499 Q 5.0398710937499995 0.8687548828124999 5.0398710937499995 0.9714755859374999 Q 5.0398710937499995 1.0720107421875 4.99779931640625 1.16216455078125 Q 4.9557275390625 1.2523183593749998 4.884697265625 1.3200703125 Q 4.8136669921875 1.3878222656249999 4.71804931640625 1.4277084960937498 Q 4.622431640625 1.4675947265625 4.5164326171875 1.4675947265625 Q 4.412619140625 1.4675947265625 4.3241044921875 1.4326259765625 Q 4.23558984375 1.3976572265625 4.1711162109375 1.33591552734375 Q 4.106642578125 1.274173828125 4.0705810546875 1.1894838867187498 Q 4.03451953125 1.1047939453125 4.03451953125 1.0042587890624999 M 4.5404736328125 1.2708955078125 Q 4.5863701171875 1.2708955078125 4.635544921875 1.2523183593749998 Q 4.6847197265625 1.2337412109374999 4.72569873046875 1.1982260742187498 Q 4.7666777343749995 1.1627109375 4.79345068359375 1.1113505859375 Q 4.8202236328125 1.0599902343749998 4.8202236328125 0.9955166015624999 Q 4.8202236328125 0.9299501953124999 4.7961826171875 0.8731259765624999 Q 4.7721416015625 0.8163017578124999 4.73006982421875 0.7742299804687499 Q 4.687998046875 0.7321582031249999 4.63062744140625 0.7081171875 Q 4.5732568359375 0.6840761718749999 4.50659765625 0.6840761718749999 Q 4.3852998046875 0.6840761718749999 4.320826171875 0.7469106445312499 Q 4.2563525390625 0.8097451171875 4.2563525390625 0.9397851562499999 Q 4.2563525390625 1.0108154296874998 4.27766162109375 1.07146435546875 Q 4.298970703125 1.1321132812499999 4.3372177734375 1.17637060546875 Q 4.37546484375 1.2206279296875 4.42737158203125 1.2457617187499999 Q 4.4792783203125 1.2708955078125 4.5404736328125 1.2708955078125 M 5.2791884765625 1.4140488281249999 Q 5.2715390625000005 1.2687099609374999 5.25460107421875 1.1457729492187498 Q 5.2376630859375 1.0228359375 5.21963232421875 0.9310429687499999 Q 5.2016015625000005 0.8392499999999999 5.18794189453125 0.78242578125 Q 5.1742822265625 0.7256015625 5.1742822265625 0.7113955078124999 Q 5.1742822265625 0.6906328125 5.190127441406251 0.6709628906249999 Q 5.20597265625 0.6512929687499999 5.2300136718750005 0.6365405273437499 Q 5.2540546875 0.6217880859374999 5.281920410156251 0.6130458984374999 Q 5.3097861328125004 0.6043037109374999 5.332734375 0.6043037109374999 Q 5.3513115234375 0.6043037109374999 5.364971191406251 0.6108603515625 Q 5.378630859375001 0.6174169921874999 5.3840947265625 0.6327158203125 Q 5.38955859375 0.6512929687499999 5.39447607421875 0.6715092773437499 Q 5.3993935546875 0.6917255859374999 5.4048574218750005 0.7201376953124999 Q 5.4114140625000005 0.7605703125 5.422341796875 0.7605703125 Q 5.4343623046875 0.7605703125 5.4496611328125 0.7245087890624999 Q 5.4715166015625005 0.6742412109374999 5.496650390625001 0.6414580078125 Q 5.521784179687501 0.6086748046874999 5.55074267578125 0.5895512695312499 Q 5.5797011718750005 0.5704277343749999 5.61084521484375 0.5627783203125 Q 5.6419892578125 0.5551289062499999 5.675865234375 0.5551289062499999 Q 5.7785859375 0.5551289062499999 5.85016259765625 0.6359941406249999 Q 5.9217392578125 0.716859375 5.962171875 0.8698476562499999 Q 5.9676357421875 0.8873320312499999 5.9720068359375 0.8922495117187499 Q 5.976377929687501 0.8971669921874998 5.981841796875 0.8971669921874998 Q 5.9873056640625 0.8971669921874998 5.993315917968751 0.8922495117187499 Q 5.999326171875 0.8873320312499999 6.004790039062501 0.872033203125 Q 6.0310166015625 0.8010029296874999 6.0659853515625 0.7512817382812499 Q 6.1009541015625 0.7015605468749999 6.13865478515625 0.67041650390625 Q 6.17635546875 0.6392724609374999 6.2156953125 0.6250664062499999 Q 6.25503515625 0.6108603515625 6.2910966796875005 0.6108603515625 Q 6.3577558593750005 0.6108603515625 6.41184814453125 0.6594887695312499 Q 6.4659404296875005 0.7081171875 6.50801220703125 0.8091987304687499 Q 6.550083984375 0.9102802734375 6.58122802734375 1.0649077148437498 Q 6.6123720703125 1.2195351562499999 6.633134765625 1.4315332031249999 Q 6.633134765625 1.4905429687499998 6.5970732421875 1.51403759765625 Q 6.5610117187500006 1.5375322265625 6.4987236328125 1.5375322265625 Q 6.458291015625 1.5375322265625 6.4353427734375 1.5200478515625 Q 6.41239453125 1.5025634765625 6.4091162109375 1.4741513671875 Q 6.394910156250001 1.322255859375 6.37797216796875 1.2036899414062499 Q 6.3610341796875005 1.0851240234375 6.341364257812501 1.00371240234375 Q 6.3216943359375 0.9223007812499999 6.29819970703125 0.8796826171874998 Q 6.274705078125001 0.8370644531249999 6.24629296875 0.8370644531249999 Q 6.2320869140625 0.8370644531249999 6.21077783203125 0.8578271484375 Q 6.1894687500000005 0.8785898437499999 6.165427734375 0.9337749023437499 Q 6.141386718750001 0.9889599609374999 6.11516015625 1.0845776367187498 Q 6.08893359375 1.1801953125 6.064892578125001 1.3288125 Q 6.0583359375 1.3703378906249999 6.02500634765625 1.392193359375 Q 5.991676757812501 1.4140488281249999 5.9435947265625 1.4140488281249999 Q 5.8878632812500005 1.4140488281249999 5.866554199218751 1.3965644531249999 Q 5.8452451171875 1.3790800781249999 5.843059570312501 1.3375546875 Q 5.8386884765625 1.265431640625 5.82830712890625 1.19385498046875 Q 5.8179257812500005 1.1222783203125 5.802626953125 1.05725830078125 Q 5.787328125 0.9922382812499999 5.7687509765625 0.9370532226562499 Q 5.750173828125 0.8818681640624999 5.7294111328125 0.8408891601562499 Q 5.7086484375 0.79991015625 5.68679296875 0.7769619140624999 Q 5.664937500000001 0.7540136718749999 5.6441748046875 0.7540136718749999 Q 5.61685546875 0.7540136718749999 5.59117529296875 0.7922607421874999 Q 5.5654951171875 0.8305078124999999 5.54527880859375 0.9004453124999999 Q 5.525062500000001 0.9703828124999999 5.5130419921875005 1.0687324218749998 Q 5.501021484375 1.1670820312499999 5.501021484375 1.2883798828125 Q 5.501021484375 1.309142578125 5.5021142578125 1.32935888671875 Q 5.5032070312500005 1.3495751953125 5.5032070312500005 1.3714306640625 Q 5.5032070312500005 1.4042138671875 5.49282568359375 1.4249765625 Q 5.4824443359375 1.4457392578125 5.463320800781251 1.4577597656249999 Q 5.444197265625 1.4697802734374998 5.4190634765625 1.4741513671875 Q 5.3939296875 1.4785224609374998 5.3644248046875 1.4785224609374998 Q 5.33710546875 1.4785224609374998 5.3207138671875 1.47469775390625 Q 5.304322265625 1.470873046875 5.295580078125 1.4632236328125 Q 5.286837890625001 1.4555742187499998 5.283559570312501 1.44300732421875 Q 5.28028125 1.4304404296875 5.2791884765625 1.4140488281249999 M 7.760876953125 0.4141611328124999 Q 7.699681640625 0.4141611328124999 7.64777490234375 0.4431196289062499 Q 7.5958681640625 0.4720781249999999 7.5570747070312505 0.5228920898437499 Q 7.51828125 0.5737060546874999 7.49642578125 0.6425507812499999 Q 7.4745703125 0.7113955078124999 7.4745703125 0.7900751953124999 Q 7.4745703125 0.8709404296874999 7.51117822265625 0.9392387695312499 Q 7.5477861328125 1.0075371093749999 7.61280615234375 1.0583510742187499 Q 7.677826171875 1.1091650390624999 7.76579443359375 1.1375771484375 Q 7.853762695312501 1.1659892578125 7.957576171875 1.1659892578125 Q 8.0329775390625 1.1659892578125 8.10018310546875 1.15232958984375 Q 8.167388671875 1.1386699218749998 8.217656250000001 1.1157216796874998 Q 8.267923828125 1.0927734375 8.297428710937501 1.0616293945312498 Q 8.32693359375 1.0304853515624999 8.32693359375 0.9955166015624999 Q 8.32693359375 0.968197265625 8.3170986328125 0.9501665039062499 Q 8.307263671875 0.9321357421874998 8.29469677734375 0.91738330078125 Q 8.2821298828125 0.9026308593749999 8.272294921875 0.88787841796875 Q 8.2624599609375 0.8731259765624999 8.2624599609375 0.8501777343749999 Q 8.2624599609375 0.8283222656249999 8.2733876953125 0.80865234375 Q 8.284315429687501 0.7889824218749999 8.30343896484375 0.77368359375 Q 8.3225625 0.7583847656249999 8.34714990234375 0.7496425781249999 Q 8.3717373046875 0.7409003906249999 8.3979638671875 0.7409003906249999 Q 8.429654296875 0.7409003906249999 8.45752001953125 0.7572919921874999 Q 8.4853857421875 0.77368359375 8.50560205078125 0.80264208984375 Q 8.525818359375 0.8316005859375 8.53729248046875 0.8703940429687499 Q 8.5487666015625 0.9091874999999999 8.5487666015625 0.9528984374999999 Q 8.5487666015625 1.0414130859375 8.50177734375 1.11736083984375 Q 8.4547880859375 1.1933085937499999 8.3717373046875 1.247947265625 Q 8.2886865234375 1.3025859375 8.1750380859375 1.33372998046875 Q 8.061389648437501 1.3648740234374999 7.9280712890625 1.3648740234374999 Q 7.780546875000001 1.3648740234374999 7.655970703125 1.32498779296875 Q 7.53139453125 1.2851015625 7.44124072265625 1.2140712890624998 Q 7.3510869140625 1.143041015625 7.300819335937501 1.0457841796874998 Q 7.2505517578125005 0.9485273437499999 7.2505517578125005 0.8326933593749999 Q 7.2505517578125005 0.7059316406249999 7.29480908203125 0.5933759765625 Q 7.339066406250001 0.4808203124999999 7.4155605468750005 0.3966767578124999 Q 7.4920546875000005 0.3125332031249999 7.59422900390625 0.26335839843749986 Q 7.6964033203125 0.21418359374999985 7.8122373046875 0.21418359374999985 Q 7.8635976562500005 0.21418359374999985 7.90676220703125 0.22565771484374997 Q 7.9499267578125 0.23713183593749987 7.9816171875 0.25789453124999984 Q 8.0133076171875 0.2786572265625 8.03133837890625 0.30652294921875 Q 8.049369140625 0.334388671875 8.049369140625 0.3671718749999999 Q 8.049369140625 0.3933984374999999 8.03789501953125 0.4168930664062499 Q 8.0264208984375 0.4403876953124999 8.007843750000001 0.45841845703124995 Q 7.9892666015625 0.4764492187499999 7.96467919921875 0.48737695312499996 Q 7.940091796875 0.4983046874999999 7.9127724609375 0.4983046874999999 Q 7.8843603515625 0.4983046874999999 7.86742236328125 0.4851914062499999 Q 7.850484375000001 0.4720781249999999 7.8362783203125 0.4562329101562499 Q 7.822072265625001 0.4403876953124999 7.8056806640625 0.4272744140624999 Q 7.7892890625 0.4141611328124999 7.760876953125 0.4141611328124999 M 9.2000595703125 0.41197558593749994 Q 9.260162109375 0.41197558593749994 9.3158935546875 0.43055273437499997 Q 9.371625 0.4491298828124999 9.414243164062501 0.48191308593749993 Q 9.456861328125001 0.5146962890624999 9.482541503906251 0.5605927734374999 Q 9.5082216796875 0.6064892578125 9.5082216796875 0.6622207031249999 Q 9.5082216796875 0.6851689453124999 9.49784033203125 0.7064780273437499 Q 9.487458984375 0.7277871093749999 9.469974609375 0.7436323242187499 Q 9.452490234375 0.7594775390624999 9.43008837890625 0.7687661132812499 Q 9.407686523437501 0.7780546875 9.383645507812501 0.7780546875 Q 9.3814599609375 0.7780546875 9.37982080078125 0.7786010742187499 Q 9.378181640625 0.7791474609374999 9.37599609375 0.7791474609374999 Q 9.373810546875001 0.7802402343749999 9.371625 0.7802402343749999 L 9.37599609375 0.8676621093749999 Q 9.380367187500001 1.0239287109375 9.42025341796875 1.0960517578125 Q 9.4601396484375 1.1681748046875 9.52461328125 1.1681748046875 Q 9.547561523437501 1.1681748046875 9.565592285156251 1.1638037109375 Q 9.583623046875001 1.1594326171875 9.59946826171875 1.15342236328125 Q 9.6153134765625 1.1474121093749998 9.62951953125 1.143041015625 Q 9.643725585937501 1.1386699218749998 9.657931640625 1.1386699218749998 Q 9.6830654296875 1.1386699218749998 9.702188964843751 1.160525390625 Q 9.7213125 1.1823808593749998 9.7213125 1.212978515625 Q 9.7213125 1.243576171875 9.69781787109375 1.274173828125 Q 9.6743232421875 1.304771484375 9.636076171875 1.32935888671875 Q 9.5978291015625 1.3539462890624998 9.5497470703125 1.3692451171875 Q 9.5016650390625 1.3845439453125 9.452490234375 1.3845439453125 Q 9.367253906250001 1.3845439453125 9.3027802734375 1.3140600585937499 Q 9.238306640625 1.243576171875 9.2109873046875 1.1069794921875 Q 9.2044306640625 1.0851240234375 9.1935029296875 1.0851240234375 Q 9.180389648437501 1.0851240234375 9.170554687500001 1.0982373046874998 Q 9.0623701171875 1.2348339843749998 8.9399794921875 1.3031323242187498 Q 8.817588867187501 1.3714306640625 8.6984765625 1.3714306640625 Q 8.6427451171875 1.3714306640625 8.597941406250001 1.3550390625 Q 8.5531376953125 1.3386474609374999 8.52199365234375 1.3085961914062498 Q 8.490849609375001 1.278544921875 8.47391162109375 1.2353803710937499 Q 8.4569736328125 1.1922158203125 8.4569736328125 1.1386699218749998 Q 8.4569736328125 1.0632685546874998 8.49030322265625 0.9802177734374999 Q 8.5236328125 0.8971669921874998 8.58045703125 0.8163017578124999 Q 8.637281250000001 0.7354365234374999 8.71213623046875 0.6622207031249999 Q 8.7869912109375 0.5890048828125 8.86949560546875 0.5332734374999999 Q 8.952 0.47754199218749993 9.037236328125001 0.4447587890624999 Q 9.12247265625 0.41197558593749994 9.2000595703125 0.41197558593749994 M 9.163998046875001 0.7900751953124999 Q 9.183667968750001 0.7529208984374999 9.2000595703125 0.73598291015625 Q 9.216451171875 0.7190449218749999 9.247048828125001 0.7135810546874999 Q 9.271089843750001 0.7103027343749999 9.271089843750001 0.6982822265624999 Q 9.271089843750001 0.6895400390624999 9.264533203125 0.6797050781249999 Q 9.243770507812501 0.6512929687499999 9.220822265625001 0.6299838867187499 Q 9.1978740234375 0.6086748046874999 9.159626953125 0.6086748046874999 Q 9.1181015625 0.6086748046874999 9.0667412109375 0.6327158203125 Q 9.015380859375 0.6567568359374999 8.962381347656251 0.69664306640625 Q 8.9093818359375 0.7365292968749999 8.85856787109375 0.7873432617187499 Q 8.807753906250001 0.8381572265624999 8.7684140625 0.8917031249999999 Q 8.72907421875 0.9452490234375 8.705033203125 0.9977021484374999 Q 8.680992187500001 1.0501552734375 8.680992187500001 1.0916806640624999 Q 8.680992187500001 1.1288349609375 8.70120849609375 1.1495976562499999 Q 8.7214248046875 1.1703603515624998 8.7563935546875 1.1703603515624998 Q 8.8460009765625 1.1703603515624998 8.952 1.0752890625 Q 9.0579990234375 0.9802177734374999 9.163998046875001 0.7900751953124999 M 10.348564453125 0.5496650390625 Q 10.3081318359375 0.5496650390625 10.2775341796875 0.5709741210937499 Q 10.246936523437501 0.5922832031249999 10.2250810546875 0.6299838867187499 Q 10.203225585937501 0.6676845703125 10.18901953125 0.71849853515625 Q 10.1748134765625 0.7693125 10.1660712890625 0.8294150390624999 Q 10.1573291015625 0.889517578125 10.15405078125 0.9550839843749999 Q 10.1507724609375 1.020650390625 10.1507724609375 1.0873095703125 Q 10.1507724609375 1.1747314453125 10.15787548828125 1.2594213867187498 Q 10.164978515625 1.344111328125 10.164978515625 1.416234375 Q 10.164978515625 1.4632236328125 10.130009765625001 1.48999658203125 Q 10.095041015625 1.51676953125 10.0305673828125 1.51676953125 Q 10.018546875 1.51676953125 10.003248046875001 1.514583984375 Q 9.98794921875 1.5123984375 9.97428955078125 1.505841796875 Q 9.9606298828125 1.49928515625 9.95024853515625 1.48781103515625 Q 9.9398671875 1.4763369140625 9.9387744140625 1.4566669921875 Q 9.928939453125 1.3605029296875 9.910362304687501 1.2599677734374999 Q 9.89178515625 1.1594326171875 9.86391943359375 1.05944384765625 Q 9.8360537109375 0.959455078125 9.79726025390625 0.8611054687499999 Q 9.758466796875 0.7627558593749999 9.70819921875 0.66877734375 Q 9.69945703125 0.6523857421874999 9.69344677734375 0.6381796874999999 Q 9.6874365234375 0.6239736328125 9.6874365234375 0.6108603515625 Q 9.6874365234375 0.5944687499999999 9.702188964843751 0.5753452148437499 Q 9.716941406250001 0.5562216796874999 9.73934326171875 0.539830078125 Q 9.7617451171875 0.5234384765624999 9.788518066406251 0.5130571289062499 Q 9.815291015625 0.5026757812499999 9.840424804687501 0.5026757812499999 Q 9.8819501953125 0.5026757812499999 9.913640625000001 0.56004638671875 Q 9.9453310546875 0.6174169921874999 9.972650390625 0.7430859375 Q 9.9781142578125 0.76494140625 9.981392578125 0.77368359375 Q 9.9846708984375 0.78242578125 9.990134765625001 0.78242578125 Q 10.0021552734375 0.78242578125 10.00543359375 0.7452714843749999 Q 10.018546875 0.6414580078125 10.050237304687501 0.5666030273437499 Q 10.081927734375 0.49174804687499996 10.12946337890625 0.4431196289062499 Q 10.1769990234375 0.39449121093749995 10.23874072265625 0.3715429687499999 Q 10.300482421875 0.3485947265625 10.374791015625 0.3485947265625 Q 10.4174091796875 0.3485947265625 10.4611201171875 0.35624414062499987 Q 10.5048310546875 0.36389355468749995 10.539799804687501 0.3791923828124999 Q 10.5747685546875 0.39449121093749995 10.596624023437501 0.41634667968749994 Q 10.6184794921875 0.43820214843749994 10.6184794921875 0.46552148437499996 Q 10.6184794921875 0.4851914062499999 10.61028369140625 0.51196435546875 Q 10.602087890625 0.5387373046874999 10.588974609375 0.5633247070312499 Q 10.575861328125 0.5879121093749999 10.55892333984375 0.60485009765625 Q 10.5419853515625 0.6217880859374999 10.5245009765625 0.6217880859374999 Q 10.5048310546875 0.6217880859374999 10.48625390625 0.6103139648437499 Q 10.4676767578125 0.5988398437499999 10.44636767578125 0.5857265624999999 Q 10.42505859375 0.5726132812499999 10.401563964843751 0.5611391601562499 Q 10.3780693359375 0.5496650390625 10.348564453125 0.5496650390625 M 11.388884765625 0.5387373046874999 Q 11.367029296875 0.5474794921874999 11.3462666015625 0.5474794921874999 Q 11.2938134765625 0.5474794921874999 11.2741435546875 0.4851914062499999 Q 11.2686796875 0.46879980468749993 11.26704052734375 0.4578720703124999 Q 11.2654013671875 0.44694433593749994 11.2654013671875 0.43820214843749994 Q 11.2654013671875 0.38684179687499987 11.323318359375 0.3617080078124999 Q 11.4380595703125 0.31581152343749985 11.557171875 0.2873994140625 Q 11.6762841796875 0.2589873046875 11.79758203125 0.2589873046875 Q 11.85440625 0.2589873046875 11.90959130859375 0.27100781249999994 Q 11.9647763671875 0.2830283203124999 12.0084873046875 0.3125332031249999 Q 12.052198242187501 0.34203808593749985 12.079517578125 0.391212890625 Q 12.1068369140625 0.4403876953124999 12.1068369140625 0.5146962890624999 Q 12.1068369140625 0.5671494140625 12.08552783203125 0.6152314453125 Q 12.06421875 0.6633134765625 12.02925 0.7070244140624999 Q 11.99428125 0.7507353515624999 11.9494775390625 0.7900751953124999 Q 11.904673828125 0.8294150390624999 11.8576845703125 0.8621982421875 Q 11.8106953125 0.8949814453124999 11.764798828125 0.9217543945312499 Q 11.71890234375 0.9485273437499999 11.681748046875 0.968197265625 Q 11.6500576171875 0.9867744140624999 11.6500576171875 1.0064443359375 Q 11.6500576171875 1.029392578125 11.68393359375 1.0425058593749998 Q 11.8008603515625 1.0840312499999998 11.9232509765625 1.1200927734375 Q 12.045641601562501 1.1561542968749998 12.171310546875 1.2009580078125 Q 12.2303203125 1.2228134765624998 12.2303203125 1.2687099609374999 Q 12.2303203125 1.2905654296875 12.21775341796875 1.31296728515625 Q 12.2051865234375 1.335369140625 12.1898876953125 1.3539462890624998 Q 12.158197265625 1.400935546875 12.1112080078125 1.400935546875 Q 12.09481640625 1.400935546875 12.070775390625 1.3943789062499998 Q 11.9997451171875 1.3670595703125 11.91833349609375 1.3375546875 Q 11.836921875 1.3080498046875 11.75223193359375 1.2790913085937499 Q 11.6675419921875 1.2501328125 11.585583984375 1.22335986328125 Q 11.5036259765625 1.1965869140624998 11.4336884765625 1.1747314453125 Q 11.4085546875 1.1681748046875 11.3998125 1.1681748046875 Q 11.3910703125 1.1681748046875 11.38615283203125 1.1719995117187498 Q 11.3812353515625 1.1758242187499999 11.3812353515625 1.1878447265624998 Q 11.3812353515625 1.191123046875 11.382328125 1.19604052734375 Q 11.3834208984375 1.2009580078125 11.3834208984375 1.206421875 Q 11.38669921875 1.2228134765624998 11.39161669921875 1.24958642578125 Q 11.3965341796875 1.276359375 11.40145166015625 1.304771484375 Q 11.406369140625 1.3331835937499998 11.4096474609375 1.35886376953125 Q 11.41292578125 1.3845439453125 11.41292578125 1.400935546875 Q 11.41292578125 1.462130859375 11.3462666015625 1.486171875 L 11.297091796875 1.5014707031249999 Q 11.2861640625 1.5047490234374998 11.277421875 1.5063881835937498 Q 11.2686796875 1.5080273437499998 11.2588447265625 1.5080273437499998 Q 11.1987421875 1.5080273437499998 11.1889072265625 1.43371875 Q 11.162680664062501 1.2348339843749998 11.12170166015625 1.0414130859375 Q 11.08072265625 0.8479921874999999 11.02826953125 0.6556640624999999 Q 11.0249912109375 0.6447363281249999 11.024444824218751 0.6365405273437499 Q 11.0238984375 0.6283447265625 11.0238984375 0.6217880859374999 Q 11.0238984375 0.5638710937499999 11.0861865234375 0.5431083984374999 Q 11.109134765625 0.535458984375 11.12388720703125 0.531087890625 Q 11.1386396484375 0.526716796875 11.14792822265625 0.5239848632812499 Q 11.157216796875 0.5212529296874999 11.16213427734375 0.5201601562499999 Q 11.1670517578125 0.5190673828124999 11.1714228515625 0.5190673828124999 Q 11.2304326171875 0.5190673828124999 11.2479169921875 0.5857265624999999 Q 11.270865234375 0.6709628906249999 11.29108154296875 0.7507353515624999 Q 11.3112978515625 0.8305078124999999 11.327689453125 0.9080947265624999 Q 11.336431640625 0.9463417968749999 11.3593798828125 0.9463417968749999 Q 11.365936523437501 0.9463417968749999 11.3746787109375 0.94360986328125 Q 11.3834208984375 0.9408779296874998 11.39544140625 0.9354140624999999 Q 11.43041015625 0.9168369140624999 11.48013134765625 0.889517578125 Q 11.5298525390625 0.8621982421875 11.58394482421875 0.82886865234375 Q 11.638037109375 0.7955390625 11.69103662109375 0.7583847656249999 Q 11.7440361328125 0.72123046875 11.78610791015625 0.6840761718749999 Q 11.8281796875 0.6469218749999999 11.85440625 0.6108603515625 Q 11.8806328125 0.5747988281249999 11.8806328125 0.5431083984374999 Q 11.8806328125 0.5234384765624999 11.87462255859375 0.5070468749999999 Q 11.8686123046875 0.49065527343749993 11.852220703125 0.47863476562499996 Q 11.8358291015625 0.4666142578124999 11.80796337890625 0.46005761718749993 Q 11.78009765625 0.4535009765624999 11.7374794921875 0.4535009765624999 Q 11.6959541015625 0.4535009765624999 11.65060400390625 0.4606040039062499 Q 11.60525390625 0.4677070312499999 11.5604501953125 0.4797275390624999 Q 11.515646484375 0.49174804687499996 11.471935546875 0.5070468749999999 Q 11.428224609375 0.522345703125 11.388884765625 0.5387373046874999 M 13.181033203125 1.1277421875 Q 13.2127236328125 1.1004228515624999 13.2433212890625 1.1004228515624999 Q 13.2608056640625 1.1004228515624999 13.27501171875 1.1091650390624999 Q 13.2892177734375 1.1179072265624999 13.3067021484375 1.136484375 Q 13.32309375 1.1616181640624998 13.33019677734375 1.1774633789062499 Q 13.3372998046875 1.1933085937499999 13.3372998046875 1.208607421875 Q 13.3372998046875 1.241390625 13.3045166015625 1.2708955078125 Q 13.2520634765625 1.3146064453125 13.1908681640625 1.3490288085937499 Q 13.1296728515625 1.383451171875 13.063013671875 1.4074921875 Q 12.9963544921875 1.4315332031249999 12.92532421875 1.44410009765625 Q 12.8542939453125 1.4566669921875 12.7843564453125 1.4566669921875 Q 12.695841796875 1.4566669921875 12.6182548828125 1.43426513671875 Q 12.54066796875 1.4118632812499998 12.48001904296875 1.3703378906249999 Q 12.4193701171875 1.3288125 12.3778447265625 1.2703491210937499 Q 12.3363193359375 1.2118857421875 12.3188349609375 1.1386699218749998 Q 12.309 1.108072265625 12.30080419921875 1.0987836914062499 Q 12.2926083984375 1.0894951171875 12.27403125 1.0894951171875 Q 12.2335986328125 1.0894951171875 12.2117431640625 1.0698251953125 Q 12.1898876953125 1.0501552734375 12.1898876953125 1.0130009765624999 Q 12.1898876953125 0.9977021484374999 12.192073242187499 0.9933310546874999 L 12.1942587890625 0.9714755859374999 Q 12.19972265625 0.9321357421874998 12.21556787109375 0.9146513671874998 Q 12.2314130859375 0.8971669921874998 12.2652890625 0.8971669921874998 L 12.2816806640625 0.8971669921874998 Q 12.3275771484375 0.8971669921874998 12.346154296875 0.8545488281249999 Q 12.3800302734375 0.7791474609374999 12.4324833984375 0.716859375 Q 12.4849365234375 0.6545712890625 12.5505029296875 0.6103139648437499 Q 12.6160693359375 0.5660566406249999 12.69092431640625 0.5414692382812499 Q 12.765779296875 0.5168818359374999 12.8433662109375 0.5168818359374999 Q 12.9242314453125 0.5168818359374999 12.99471533203125 0.5403764648437499 Q 13.06519921875 0.5638710937499999 13.11765234375 0.6053964843749999 Q 13.17010546875 0.6469218749999999 13.20015673828125 0.7026533203124999 Q 13.2302080078125 0.7583847656249999 13.2302080078125 0.8228583984375 Q 13.2302080078125 0.8676621093749999 13.2127236328125 0.9048164062499999 Q 13.1952392578125 0.941970703125 13.1624560546875 0.96983642578125 Q 13.1296728515625 0.9977021484374999 13.08322998046875 1.0151865234375 Q 13.036787109375 1.0326708984375 12.97777734375 1.038134765625 L 12.5985849609375 1.0763818359375 Q 12.5767294921875 1.0763818359375 12.56306982421875 1.0873095703125 Q 12.54941015625 1.0982373046874998 12.54941015625 1.116814453125 Q 12.54941015625 1.1452265625 12.57071923828125 1.171453125 Q 12.5920283203125 1.1976796875 12.62754345703125 1.2178959960937499 Q 12.66305859375 1.2381123046875 12.70950146484375 1.2501328125 Q 12.7559443359375 1.2621533203125 12.805119140625 1.2621533203125 Q 12.8521083984375 1.2621533203125 12.90182958984375 1.2528647460937499 Q 12.951550781249999 1.243576171875 13.00017919921875 1.226091796875 Q 13.0488076171875 1.208607421875 13.0947041015625 1.1840200195312498 Q 13.1406005859375 1.1594326171875 13.181033203125 1.1277421875 M 12.9373447265625 0.8458066406249999 Q 12.953736328125 0.8425283203124999 12.9657568359375 0.8299614257812499 Q 12.97777734375 0.81739453125 12.97777734375 0.7988173828124999 Q 12.97777734375 0.78242578125 12.9657568359375 0.7682197265624999 Q 12.953736328125 0.7540136718749999 12.9329736328125 0.7425395507812499 Q 12.9122109375 0.7310654296874999 12.8848916015625 0.7245087890624999 Q 12.857572265625 0.7179521484374999 12.826974609375 0.7179521484374999 Q 12.7821708984375 0.7179521484374999 12.735181640625001 0.7310654296874999 Q 12.6881923828125 0.7441787109374999 12.6499453125 0.7654877929687499 Q 12.6116982421875 0.786796875 12.5876572265625 0.8124770507812499 Q 12.5636162109375 0.8381572265624999 12.5636162109375 0.8632910156249999 Q 12.5636162109375 0.8884248046874998 12.5942138671875 0.8884248046874998 Q 12.612791015625 0.8884248046874998 12.65431640625 0.8840537109375 Q 12.695841796875 0.8796826171874998 12.746109375 0.87367236328125 Q 12.796376953125 0.8676621093749999 12.8477373046875 0.8600126953124999 Q 12.89909765625 0.8523632812499999 12.9373447265625 0.8458066406249999 M 13.424721679687499 0.4851914062499999 Q 13.424721679687499 0.46879980468749993 13.438927734375 0.4529545898437499 Q 13.4531337890625 0.4371093749999999 13.47608203125 0.42454248046874987 Q 13.4990302734375 0.41197558593749994 13.52798876953125 0.4037797851562499 Q 13.556947265625 0.395583984375 13.5864521484375 0.395583984375 Q 13.60284375 0.395583984375 13.61431787109375 0.404326171875 Q 13.6257919921875 0.41306835937499997 13.634534179687499 0.43765576171874987 Q 13.6432763671875 0.4622431640624999 13.65037939453125 0.5065004882812499 Q 13.657482421874999 0.5507578124999999 13.664039062499999 0.6217880859374999 Q 13.66841015625 0.6436435546874999 13.672234863281249 0.6551176757812499 Q 13.6760595703125 0.6665917968749999 13.6826162109375 0.6665917968749999 Q 13.692451171875 0.6665917968749999 13.7022861328125 0.6327158203125 Q 13.78205859375 0.4021406249999999 13.932861328125 0.4021406249999999 Q 14.002798828125 0.4021406249999999 14.06016943359375 0.4458515624999999 Q 14.117540039062499 0.4895624999999999 14.16726123046875 0.5884584960937499 Q 14.216982421874999 0.6873544921874999 14.2617861328125 0.8485385742187499 Q 14.30658984375 1.00972265625 14.3513935546875 1.2457617187499999 Q 14.353579101562499 1.2577822265624998 14.354671875 1.2676171875 Q 14.3557646484375 1.2774521484374999 14.3557646484375 1.2861943359374999 Q 14.3557646484375 1.311328125 14.34429052734375 1.32935888671875 Q 14.33281640625 1.3473896484374999 14.314239257812499 1.35886376953125 Q 14.295662109375 1.3703378906249999 14.2727138671875 1.37634814453125 Q 14.249765625 1.3823583984374999 14.226817382812499 1.3823583984374999 Q 14.180920898437499 1.3823583984374999 14.16070458984375 1.3725234375 Q 14.140488281249999 1.3626884765624998 14.1350244140625 1.335369140625 Q 14.103333984374999 1.169267578125 14.07328271484375 1.0403203125 Q 14.0432314453125 0.9113730468749999 14.01427294921875 0.8234047851562499 Q 13.985314453125 0.7354365234374999 13.956902343749999 0.6895400390624999 Q 13.928490234375 0.6436435546874999 13.900078125 0.6436435546874999 Q 13.871666015625 0.6436435546874999 13.84707861328125 0.67915869140625 Q 13.8224912109375 0.7146738281249999 13.79954296875 0.7900751953124999 Q 13.7765947265625 0.8654765624999999 13.755285644531249 0.9813105468749999 Q 13.733976562499999 1.0971445312499999 13.714306640624999 1.2577822265624998 Q 13.7088427734375 1.3014931640624998 13.670595703124999 1.3277197265624998 Q 13.6323486328125 1.3539462890624998 13.5733388671875 1.3539462890624998 Q 13.533999023437499 1.3539462890624998 13.513236328125 1.3375546875 Q 13.4924736328125 1.3211630859374999 13.4902880859375 1.2927509765624998 Q 13.480453124999999 1.0654541015624999 13.468979003906249 0.9184760742187499 Q 13.457504882812499 0.7714980468749999 13.447669921874999 0.6824370117187499 Q 13.437834960937499 0.5933759765625 13.431278320312499 0.5496650390625 Q 13.424721679687499 0.5059541015624999 13.424721679687499 0.4851914062499999 M 14.571041015625 0.10490624999999998 Q 14.571041015625 0.04698925781249996 14.603824218749999 0.02349462890624987 Q 14.636607421875 0 14.7120087890625 0 Q 14.739328125 0 14.75845166015625 0.004917480468749957 Q 14.7775751953125 0.009834960937499915 14.79123486328125 0.022948242187500023 Q 14.80489453125 0.03606152343749991 14.81309033203125 0.05737060546874995 Q 14.8212861328125 0.07867968749999998 14.82675 0.11146289062499992 Q 14.83986328125 0.21309082031249993 14.855708496093749 0.3212753906249999 Q 14.8715537109375 0.42945996093749994 14.8890380859375 0.5387373046874999 Q 14.8955947265625 0.5879121093749999 14.940398437499999 0.5879121093749999 Q 14.9524189453125 0.5879121093749999 14.98028466796875 0.5851801757812499 Q 15.008150390625 0.5824482421874999 15.0463974609375 0.5786235351562499 Q 15.08464453125 0.5747988281249999 15.128901855468749 0.5704277343749999 Q 15.1731591796875 0.5660566406249999 15.21741650390625 0.5622319335937499 Q 15.261673828125 0.5584072265625 15.30156005859375 0.55567529296875 Q 15.3414462890625 0.5529433593749999 15.3720439453125 0.5529433593749999 Q 15.3960849609375 0.5529433593749999 15.410291015624999 0.5622319335937499 Q 15.4244970703125 0.5715205078125 15.43269287109375 0.58627294921875 Q 15.440888671875 0.6010253906249999 15.44362060546875 0.6190561523437499 Q 15.446352539062499 0.6370869140625 15.446352539062499 0.6556640624999999 Q 15.446352539062499 0.6720556640625 15.44034228515625 0.6895400390624999 Q 15.43433203125 0.7070244140624999 15.42395068359375 0.7206840820312499 Q 15.413569335937499 0.73434375 15.3982705078125 0.7430859375 Q 15.3829716796875 0.751828125 15.3633017578125 0.751828125 Q 15.26823046875 0.751828125 15.17152001953125 0.7578383789062499 Q 15.0748095703125 0.7638486328124999 14.9786455078125 0.77368359375 Q 14.929470703125 0.7802402343749999 14.929470703125 0.8228583984375 Q 14.929470703125 0.8261367187499999 14.930563476562499 0.8310541992187499 Q 14.93165625 0.8359716796875 14.93165625 0.8392499999999999 Q 14.94476953125 0.9343212890624999 14.95624365234375 1.0173720703125 Q 14.9677177734375 1.1004228515624999 14.97591357421875 1.1654428710937499 Q 14.984109375 1.230462890625 14.98902685546875 1.2736274414062498 Q 14.993944335937499 1.3167919921875 14.993944335937499 1.330998046875 Q 14.993944335937499 1.3703378906249999 14.986294921875 1.39711083984375 Q 14.9786455078125 1.4238837890625 14.9611611328125 1.44082177734375 Q 14.943676757812499 1.4577597656249999 14.91471826171875 1.4648627929687499 Q 14.885759765625 1.4719658203125 14.842048828125 1.4719658203125 Q 14.800523437499999 1.4719658203125 14.780853515625 1.4522958984374998 Q 14.76118359375 1.4326259765625 14.758998046875 1.392193359375 Q 14.75244140625 1.2632460937499999 14.7382353515625 1.13265966796875 Q 14.724029296874999 1.0020732421875 14.7054521484375 0.872033203125 Q 14.6956171875 0.8250439453124999 14.65627734375 0.8250439453124999 Q 14.6529990234375 0.8250439453124999 14.6486279296875 0.8261367187499999 Q 14.6442568359375 0.8272294921875 14.640978515625 0.8272294921875 Q 14.5732265625 0.8425283203124999 14.5131240234375 0.8578271484375 Q 14.453021484375 0.8731259765624999 14.400568359374999 0.8906103515624999 Q 14.3710634765625 0.9004453124999999 14.348115234375 0.9042700195312499 Q 14.3251669921875 0.9080947265624999 14.30658984375 0.9080947265624999 Q 14.2814560546875 0.9080947265624999 14.269435546875 0.88569287109375 Q 14.257415039062499 0.8632910156249999 14.257415039062499 0.8294150390624999 Q 14.257415039062499 0.81739453125 14.2596005859375 0.8015493164062499 Q 14.2617861328125 0.7857041015624999 14.26779638671875 0.7698588867187499 Q 14.273806640624999 0.7540136718749999 14.28528076171875 0.74035400390625 Q 14.2967548828125 0.7266943359374999 14.3164248046875 0.7179521484374999 Q 14.3623212890625 0.699375 14.4388154296875 0.67915869140625 Q 14.5153095703125 0.6589423828125 14.6114736328125 0.6414580078125 Q 14.6333291015625 0.6359941406249999 14.64589599609375 0.6234272460937499 Q 14.658462890625 0.6108603515625 14.658462890625 0.5857265624999999 Q 14.658462890625 0.5802626953125 14.658462890625 0.5742524414062499 Q 14.658462890625 0.5682421874999999 14.65627734375 0.5616855468749999 Q 14.63879296875 0.46115039062499996 14.62294775390625 0.37864599609374994 Q 14.607102539062499 0.2961416015625 14.595628417968749 0.23713183593749987 Q 14.584154296874999 0.17812207031249994 14.57759765625 0.14424609374999986 Q 14.571041015625 0.1103701171875 14.571041015625 0.10490624999999998 M 16.0692333984375 0.41197558593749994 Q 16.1293359375 0.41197558593749994 16.1850673828125 0.43055273437499997 Q 16.240798828125 0.4491298828124999 16.2834169921875 0.48191308593749993 Q 16.32603515625 0.5146962890624999 16.35171533203125 0.5605927734374999 Q 16.3773955078125 0.6064892578125 16.3773955078125 0.6622207031249999 Q 16.3773955078125 0.6851689453124999 16.36701416015625 0.7064780273437499 Q 16.3566328125 0.7277871093749999 16.3391484375 0.7436323242187499 Q 16.3216640625 0.7594775390624999 16.29926220703125 0.7687661132812499 Q 16.2768603515625 0.7780546875 16.2528193359375 0.7780546875 Q 16.2506337890625 0.7780546875 16.24899462890625 0.7786010742187499 Q 16.24735546875 0.7791474609374999 16.245169921875 0.7791474609374999 Q 16.242984375 0.7802402343749999 16.240798828125 0.7802402343749999 L 16.245169921875 0.8676621093749999 Q 16.249541015625 1.0239287109375 16.28942724609375 1.0960517578125 Q 16.3293134765625 1.1681748046875 16.393787109375 1.1681748046875 Q 16.4167353515625 1.1681748046875 16.43476611328125 1.1638037109375 Q 16.452796875 1.1594326171875 16.46864208984375 1.15342236328125 Q 16.4844873046875 1.1474121093749998 16.498693359375 1.143041015625 Q 16.5128994140625 1.1386699218749998 16.52710546875 1.1386699218749998 Q 16.5522392578125 1.1386699218749998 16.57136279296875 1.160525390625 Q 16.590486328125 1.1823808593749998 16.590486328125 1.212978515625 Q 16.590486328125 1.243576171875 16.56699169921875 1.274173828125 Q 16.5434970703125 1.304771484375 16.50525 1.32935888671875 Q 16.4670029296875 1.3539462890624998 16.4189208984375 1.3692451171875 Q 16.3708388671875 1.3845439453125 16.3216640625 1.3845439453125 Q 16.236427734375 1.3845439453125 16.1719541015625 1.3140600585937499 Q 16.10748046875 1.243576171875 16.0801611328125 1.1069794921875 Q 16.0736044921875 1.0851240234375 16.0626767578125 1.0851240234375 Q 16.0495634765625 1.0851240234375 16.039728515625 1.0982373046874998 Q 15.9315439453125 1.2348339843749998 15.8091533203125 1.3031323242187498 Q 15.6867626953125 1.3714306640625 15.567650390625 1.3714306640625 Q 15.5119189453125 1.3714306640625 15.467115234375001 1.3550390625 Q 15.4223115234375 1.3386474609374999 15.39116748046875 1.3085961914062498 Q 15.3600234375 1.278544921875 15.34308544921875 1.2353803710937499 Q 15.3261474609375 1.1922158203125 15.3261474609375 1.1386699218749998 Q 15.3261474609375 1.0632685546874998 15.35947705078125 0.9802177734374999 Q 15.392806640625 0.8971669921874998 15.449630859375 0.8163017578124999 Q 15.506455078125 0.7354365234374999 15.58131005859375 0.6622207031249999 Q 15.6561650390625 0.5890048828125 15.73866943359375 0.5332734374999999 Q 15.821173828125 0.47754199218749993 15.90641015625 0.4447587890624999 Q 15.991646484375 0.41197558593749994 16.0692333984375 0.41197558593749994 M 16.033171875 0.7900751953124999 Q 16.052841796875 0.7529208984374999 16.0692333984375 0.73598291015625 Q 16.085625 0.7190449218749999 16.11622265625 0.7135810546874999 Q 16.140263671875 0.7103027343749999 16.140263671875 0.6982822265624999 Q 16.140263671875 0.6895400390624999 16.13370703125 0.6797050781249999 Q 16.1129443359375 0.6512929687499999 16.08999609375 0.6299838867187499 Q 16.0670478515625 0.6086748046874999 16.02880078125 0.6086748046874999 Q 15.987275390625 0.6086748046874999 15.9359150390625 0.6327158203125 Q 15.8845546875 0.6567568359374999 15.83155517578125 0.69664306640625 Q 15.7785556640625 0.7365292968749999 15.72774169921875 0.7873432617187499 Q 15.676927734375 0.8381572265624999 15.637587890625 0.8917031249999999 Q 15.598248046875 0.9452490234375 15.57420703125 0.9977021484374999 Q 15.550166015625 1.0501552734375 15.550166015625 1.0916806640624999 Q 15.550166015625 1.1288349609375 15.57038232421875 1.1495976562499999 Q 15.5905986328125 1.1703603515624998 15.6255673828125 1.1703603515624998 Q 15.7151748046875 1.1703603515624998 15.821173828125 1.0752890625 Q 15.9271728515625 0.9802177734374999 16.033171875 0.7900751953124999 M 16.5664453125 0.12239062499999998 Q 16.5664453125 0.06556640624999988 16.599228515625 0.041525390624999936 Q 16.63201171875 0.017484374999999996 16.7074130859375 0.017484374999999996 Q 16.7336396484375 0.017484374999999996 16.7533095703125 0.022948242187500023 Q 16.7729794921875 0.028412109374999828 16.7860927734375 0.04097900390624987 Q 16.7992060546875 0.053545898437499906 16.80740185546875 0.07485498046874994 Q 16.81559765625 0.09616406249999998 16.8210615234375 0.12894726562499992 Q 16.835267578125 0.22620410156249982 16.85002001953125 0.33274951171875 Q 16.8647724609375 0.43929492187499997 16.87843212890625 0.5447475585937499 Q 16.892091796875 0.6502001953125 16.9041123046875 0.75018896484375 Q 16.9161328125 0.8501777343749999 16.92542138671875 0.9359604492187499 Q 16.9347099609375 1.0217431640624999 16.939627441406248 1.08785595703125 Q 16.944544921875 1.15396875 16.944544921875 1.1922158203125 Q 16.944544921875 1.2315556640624998 16.93744189453125 1.258875 Q 16.9303388671875 1.2861943359374999 16.91340087890625 1.3025859375 Q 16.896462890625 1.3189775390624998 16.86968994140625 1.3260805664062498 Q 16.8429169921875 1.3331835937499998 16.8035771484375 1.3331835937499998 Q 16.765330078125 1.3331835937499998 16.74292822265625 1.313513671875 Q 16.7205263671875 1.29384375 16.7205263671875 1.2534111328125 Q 16.7205263671875 1.2118857421875 16.7139697265625 1.1424946289062499 Q 16.7074130859375 1.073103515625 16.6964853515625 0.9878671874999999 Q 16.6855576171875 0.9026308593749999 16.67189794921875 0.8064667968749999 Q 16.65823828125 0.7103027343749999 16.64348583984375 0.6163242187499999 Q 16.6287333984375 0.522345703125 16.61507373046875 0.4354702148437499 Q 16.601414062499998 0.3485947265625 16.590486328125 0.28138916015624993 Q 16.57955859375 0.21418359374999985 16.573001953125 0.17101904296874992 Q 16.5664453125 0.1278544921875 16.5664453125 0.12239062499999998" fill="#102036" fill-rule="nonzero"></path></g><g><path d=" M 4.141416228442387 2.860476046875 L 4.1425569784423875 2.544488296875 L 4.414055478442387 2.084766046875 L 4.317091728442387 2.084766046875 L 4.096926978442387 2.460072796875 L 3.8790437284423875 2.066514046875 L 3.794628228442387 2.103018046875 L 4.051296978442387 2.549051296875 L 4.051296978442387 2.860476046875 L 4.141416228442387 2.860476046875 M 5.205494460278325 2.7355639218750003 Q 5.171842335278325 2.8011570468750002 5.109101085278325 2.838231421875 Q 5.0463598352783245 2.875305796875 4.963085085278324 2.875305796875 Q 4.883232585278325 2.875305796875 4.823913585278325 2.838231421875 Q 4.764594585278325 2.8011570468750002 4.733223960278325 2.734423171875 Q 4.701853335278325 2.6676892968750003 4.701853335278325 2.582133046875 Q 4.702994085278325 2.497717546875 4.735505460278325 2.432124421875 Q 4.768016835278325 2.3665312968750003 4.829617335278325 2.329456921875 Q 4.891217835278325 2.2923825468750003 4.973351835278325 2.2923825468750003 Q 5.097693585278325 2.2923825468750003 5.168420085278325 2.371664671875 Q 5.239146585278325 2.4509467968750003 5.239146585278325 2.585555296875 Q 5.239146585278325 2.669970796875 5.205494460278325 2.7355639218750003 M 5.097693585278325 2.738986171875 Q 5.145605085278325 2.679096796875 5.146745835278325 2.586696046875 Q 5.146745835278325 2.488591546875 5.101115835278325 2.428702171875 Q 5.055485835278325 2.368812796875 4.972211085278325 2.368812796875 Q 4.890077085278325 2.368812796875 4.842165585278325 2.428702171875 Q 4.794254085278324 2.488591546875 4.793113335278325 2.5809922968750003 Q 4.793113335278325 2.677956046875 4.838743335278325 2.738415796875 Q 4.884373335278325 2.798875546875 4.9676480852783245 2.798875546875 Q 5.049782085278325 2.798875546875 5.097693585278325 2.738986171875 M 5.955892064428715 2.6984895468750003 Q 5.9159658144287155 2.7418380468750003 5.864061689428715 2.7703567968750002 Q 5.812157564428715 2.798875546875 5.771090564428715 2.798875546875 Q 5.717475314428715 2.798875546875 5.694660314428715 2.764653046875 Q 5.671845314428715 2.730430546875 5.671845314428715 2.668830046875 L 5.671845314428715 2.307212296875 L 5.581726064428715 2.307212296875 L 5.581726064428715 2.681378296875 Q 5.581726064428715 2.7703567968750002 5.624504189428715 2.823401671875 Q 5.667282314428715 2.876446546875 5.7551200644287155 2.876446546875 Q 5.807594564428715 2.876446546875 5.865772814428715 2.8490685468750003 Q 5.923951064428715 2.821690546875 5.963877314428715 2.7806235468750002 L 5.978707064428715 2.860476046875 L 6.046011314428715 2.860476046875 L 6.046011314428715 2.306071546875 L 5.955892064428715 2.306071546875 L 5.955892064428715 2.6984895468750003 M 6.518614570312504 2.479465546875 Q 6.557400070312504 2.439539296875 6.613296820312504 2.409309421875 Q 6.669193570312504 2.3790795468750003 6.714823570312504 2.3790795468750003 L 6.693149320312504 2.307212296875 Q 6.653223070312504 2.307212296875 6.600748570312504 2.335731046875 Q 6.548274070312504 2.3642497968750003 6.510629320312504 2.396190796875 L 6.482110570312504 2.307212296875 L 6.428495320312504 2.307212296875 L 6.428495320312504 2.860476046875 L 6.518614570312504 2.860476046875 L 6.518614570312504 2.479465546875 M 7.631468442553715 2.479465546875 Q 7.670253942553715 2.439539296875 7.726150692553715 2.409309421875 Q 7.782047442553715 2.3790795468750003 7.827677442553715 2.3790795468750003 L 7.806003192553715 2.307212296875 Q 7.766076942553715 2.307212296875 7.713602442553715 2.335731046875 Q 7.6611279425537155 2.3642497968750003 7.623483192553715 2.396190796875 L 7.5949644425537155 2.307212296875 L 7.5413491925537155 2.307212296875 L 7.5413491925537155 2.860476046875 L 7.631468442553715 2.860476046875 L 7.631468442553715 2.479465546875 M 8.237519953198246 2.1788779218750003 Q 8.255771953198245 2.161196296875 8.255771953198245 2.136099796875 Q 8.255771953198245 2.1110032968750003 8.237519953198246 2.092751296875 Q 8.219267953198246 2.074499296875 8.194171453198246 2.074499296875 Q 8.167934203198246 2.074499296875 8.150822953198245 2.0921809218750003 Q 8.133711703198246 2.109862546875 8.133711703198246 2.136099796875 Q 8.133711703198246 2.162337046875 8.150822953198245 2.179448296875 Q 8.167934203198246 2.196559546875 8.194171453198246 2.196559546875 Q 8.219267953198246 2.196559546875 8.237519953198246 2.1788779218750003 M 8.240942203198246 2.860476046875 L 8.240942203198246 2.307212296875 L 8.149682203198246 2.307212296875 L 8.149682203198246 2.860476046875 L 8.240942203198246 2.860476046875 M 9.072910673437503 2.056247296875 L 9.072910673437503 2.860476046875 L 9.018154673437502 2.860476046875 L 9.001043423437503 2.818268296875 Q 8.966820923437503 2.845646296875 8.926894673437502 2.860476046875 Q 8.886968423437503 2.875305796875 8.851605173437502 2.875305796875 Q 8.728404173437502 2.875305796875 8.658248048437503 2.794882921875 Q 8.588091923437503 2.714460046875 8.588091923437503 2.5809922968750003 Q 8.588091923437503 2.496576796875 8.620603298437503 2.430983671875 Q 8.653114673437504 2.365390546875 8.713004048437503 2.328886546875 Q 8.772893423437504 2.2923825468750003 8.853886673437502 2.2923825468750003 Q 8.883546173437503 2.2923825468750003 8.917198298437503 2.303790046875 Q 8.950850423437503 2.315197546875 8.981650673437503 2.334590296875 L 8.981650673437503 2.066514046875 L 9.072910673437503 2.056247296875 M 8.922902048437503 2.785756921875 Q 8.954272673437503 2.7726382968750003 8.981650673437503 2.745260296875 L 8.981650673437503 2.4178650468750003 Q 8.926894673437502 2.368812796875 8.851605173437502 2.368812796875 Q 8.769471173437502 2.368812796875 8.724981923437502 2.427561421875 Q 8.680492673437502 2.4863100468750003 8.679351923437503 2.579851546875 Q 8.679351923437503 2.679096796875 8.723270798437502 2.738986171875 Q 8.767189673437503 2.798875546875 8.850464423437503 2.798875546875 Q 8.891531423437502 2.798875546875 8.922902048437503 2.785756921875 M 9.86781869384766 2.3767980468750003 Q 9.81021081884766 2.2923825468750003 9.68929131884766 2.2923825468750003 Q 9.609438818847659 2.2923825468750003 9.55069019384766 2.329456921875 Q 9.49194156884766 2.3665312968750003 9.46171169384766 2.432124421875 Q 9.43148181884766 2.497717546875 9.43148181884766 2.582133046875 Q 9.43148181884766 2.715600796875 9.505630568847659 2.7954532968750003 Q 9.57977931884766 2.875305796875 9.72123231884766 2.875305796875 Q 9.77826981884766 2.875305796875 9.82504056884766 2.859905671875 Q 9.87181131884766 2.8445055468750002 9.918582068847659 2.818268296875 L 9.890063318847659 2.7521047968750003 Q 9.83872956884766 2.777201296875 9.80165519384766 2.788608796875 Q 9.76458081884766 2.800016296875 9.720091568847659 2.800016296875 Q 9.621987068847659 2.800016296875 9.57464594384766 2.7458306718750003 Q 9.527304818847659 2.691645046875 9.52388256884766 2.598103546875 L 9.92542656884766 2.598103546875 Q 9.92542656884766 2.4612135468750003 9.86781869384766 2.3767980468750003 M 9.57464594384766 2.4138724218750003 Q 9.61514256884766 2.368812796875 9.68586906884766 2.368812796875 Q 9.81705531884766 2.368812796875 9.836448068847659 2.536503046875 L 9.52616406884766 2.536503046875 Q 9.534149318847659 2.458932046875 9.57464594384766 2.4138724218750003 M 10.258894530175784 2.756667796875 Q 10.240642530175784 2.7749197968750003 10.240642530175784 2.798875546875 Q 10.240642530175784 2.821690546875 10.256613030175783 2.839942546875 Q 10.272583530175783 2.858194546875 10.293117030175784 2.8593352968750003 Q 10.290835530175784 2.888994796875 10.273724280175784 2.9106690468750003 Q 10.256613030175783 2.932343296875 10.224672030175784 2.955158296875 L 10.248627780175784 2.9973660468750003 Q 10.297680030175783 2.9722695468750002 10.331332155175785 2.918083921875 Q 10.364984280175785 2.863898296875 10.364984280175785 2.809142296875 Q 10.364984280175785 2.777201296875 10.347302655175785 2.757808546875 Q 10.329621030175785 2.738415796875 10.302243030175784 2.738415796875 Q 10.277146530175784 2.738415796875 10.258894530175784 2.756667796875 M 11.286761413403323 3.0036401718750003 Q 11.261094538403324 3.021321796875 11.207479288403324 3.046418296875 L 11.234857288403322 3.111441046875 Q 11.295317038403322 3.098892796875 11.341517413403324 3.062388796875 Q 11.387717788403323 3.0258847968750002 11.407110538403323 2.9745510468750003 L 11.651231038403322 2.307212296875 L 11.559971038403322 2.307212296875 L 11.401406788403323 2.734993546875 L 11.233716538403323 2.290101046875 L 11.153864038403324 2.324323546875 L 11.359199038403323 2.8570537968750003 L 11.324976538403323 2.9517360468750002 Q 11.312428288403323 2.985958546875 11.286761413403323 3.0036401718750003 M 12.442676147314456 2.7355639218750003 Q 12.409024022314457 2.8011570468750002 12.346282772314456 2.838231421875 Q 12.283541522314456 2.875305796875 12.200266772314457 2.875305796875 Q 12.120414272314456 2.875305796875 12.061095272314457 2.838231421875 Q 12.001776272314457 2.8011570468750002 11.970405647314456 2.734423171875 Q 11.939035022314457 2.6676892968750003 11.939035022314457 2.582133046875 Q 11.940175772314456 2.497717546875 11.972687147314456 2.432124421875 Q 12.005198522314457 2.3665312968750003 12.066799022314456 2.329456921875 Q 12.128399522314457 2.2923825468750003 12.210533522314456 2.2923825468750003 Q 12.334875272314456 2.2923825468750003 12.405601772314457 2.371664671875 Q 12.476328272314456 2.4509467968750003 12.476328272314456 2.585555296875 Q 12.476328272314456 2.669970796875 12.442676147314456 2.7355639218750003 M 12.334875272314456 2.738986171875 Q 12.382786772314457 2.679096796875 12.383927522314456 2.586696046875 Q 12.383927522314456 2.488591546875 12.338297522314457 2.428702171875 Q 12.292667522314456 2.368812796875 12.209392772314457 2.368812796875 Q 12.127258772314457 2.368812796875 12.079347272314456 2.428702171875 Q 12.031435772314456 2.488591546875 12.030295022314457 2.5809922968750003 Q 12.030295022314457 2.677956046875 12.075925022314456 2.738415796875 Q 12.121555022314457 2.798875546875 12.204829772314456 2.798875546875 Q 12.286963772314456 2.798875546875 12.334875272314456 2.738986171875 M 13.193073751464848 2.6984895468750003 Q 13.153147501464847 2.7418380468750003 13.101243376464847 2.7703567968750002 Q 13.049339251464847 2.798875546875 13.008272251464847 2.798875546875 Q 12.954657001464847 2.798875546875 12.931842001464847 2.764653046875 Q 12.909027001464848 2.730430546875 12.909027001464848 2.668830046875 L 12.909027001464848 2.307212296875 L 12.818907751464847 2.307212296875 L 12.818907751464847 2.681378296875 Q 12.818907751464847 2.7703567968750002 12.861685876464847 2.823401671875 Q 12.904464001464847 2.876446546875 12.992301751464847 2.876446546875 Q 13.044776251464848 2.876446546875 13.102954501464847 2.8490685468750003 Q 13.161132751464848 2.821690546875 13.201059001464849 2.7806235468750002 L 13.215888751464847 2.860476046875 L 13.283193001464848 2.860476046875 L 13.283193001464848 2.306071546875 L 13.193073751464848 2.306071546875 L 13.193073751464848 2.6984895468750003 M 13.755796257348637 2.479465546875 Q 13.794581757348638 2.439539296875 13.850478507348637 2.409309421875 Q 13.906375257348637 2.3790795468750003 13.952005257348638 2.3790795468750003 L 13.930331007348638 2.307212296875 Q 13.890404757348637 2.307212296875 13.837930257348637 2.335731046875 Q 13.785455757348638 2.3642497968750003 13.747811007348638 2.396190796875 L 13.719292257348638 2.307212296875 L 13.665677007348638 2.307212296875 L 13.665677007348638 2.860476046875 L 13.755796257348637 2.860476046875 L 13.755796257348637 2.479465546875 M 15.298712879589848 2.860476046875 L 15.461840129589847 2.307212296875 L 15.370580129589847 2.307212296875 L 15.254223629589848 2.731571296875 L 15.131022629589848 2.307212296875 L 15.039762629589848 2.307212296875 L 14.923406129589848 2.731571296875 L 14.800205129589848 2.290101046875 L 14.718071129589848 2.324323546875 L 14.878916879589848 2.860476046875 L 14.966754629589847 2.860476046875 L 15.084251879589848 2.439539296875 L 15.209734379589847 2.860476046875 L 15.298712879589848 2.860476046875 M 15.906501137548831 2.3807906718750003 Q 15.941294012548832 2.371094296875 15.990346262548831 2.371094296875 Q 16.05308751254883 2.371094296875 16.08217663754883 2.406457546875 Q 16.111265762548832 2.441820796875 16.111265762548832 2.503421296875 L 16.111265762548832 2.534221546875 L 15.968672012548831 2.534221546875 Q 15.878552762548832 2.534221546875 15.823796762548831 2.5787107968750003 Q 15.769040762548832 2.623200046875 15.769040762548832 2.703052546875 Q 15.769040762548832 2.779482796875 15.817522637548832 2.827394296875 Q 15.866004512548832 2.875305796875 15.958405262548832 2.875305796875 Q 16.00175376254883 2.875305796875 16.047383762548833 2.854201921875 Q 16.093013762548832 2.833098046875 16.12381401254883 2.804579296875 L 16.13522151254883 2.860476046875 L 16.20252576254883 2.860476046875 L 16.20252576254883 2.478324796875 Q 16.20252576254883 2.424709546875 16.175147762548832 2.382501796875 Q 16.147769762548833 2.340294046875 16.09871751254883 2.316338296875 Q 16.04966526254883 2.2923825468750003 15.986924012548831 2.2923825468750003 Q 15.949279262548831 2.2923825468750003 15.891671387548831 2.306071546875 Q 15.834063512548832 2.319760546875 15.804404012548831 2.340294046875 L 15.830641262548832 2.408739046875 Q 15.871708262548832 2.390487046875 15.906501137548831 2.3807906718750003 M 15.882545387548832 2.6260519218750003 Q 15.912775262548832 2.594681296875 15.966390512548832 2.594681296875 L 16.11240651254883 2.594681296875 L 16.11240651254883 2.720163796875 Q 16.08160626254883 2.756667796875 16.041109637548832 2.779482796875 Q 16.000613012548833 2.802297796875 15.956123762548831 2.802297796875 Q 15.904790012548832 2.802297796875 15.878552762548832 2.7726382968750003 Q 15.85231551254883 2.742978796875 15.85231551254883 2.703052546875 Q 15.85231551254883 2.657422546875 15.882545387548832 2.6260519218750003 M 16.65172581921387 3.0036401718750003 Q 16.62605894421387 3.021321796875 16.57244369421387 3.046418296875 L 16.59982169421387 3.111441046875 Q 16.66028144421387 3.098892796875 16.70648181921387 3.062388796875 Q 16.752682194213868 3.0258847968750002 16.77207494421387 2.9745510468750003 L 17.01619544421387 2.307212296875 L 16.92493544421387 2.307212296875 L 16.76637119421387 2.734993546875 L 16.598680944213868 2.290101046875 L 16.51882844421387 2.324323546875 L 16.72416344421387 2.8570537968750003 L 16.68994094421387 2.9517360468750002 Q 16.677392694213868 2.985958546875 16.65172581921387 3.0036401718750003" fill="#3682ae" fill-rule="nonzero"></path></g></g><defs><clipPath id="SvgjsClipPath1001"><path d=" M 17.427595703125 -0.8726007885050633 h 11.751713938269752 v 4.605677623885127 h -11.751713938269752 Z"></path></clipPath><clipPath id="SvgjsClipPath10007799ba5c-a875-4e17-958f-603e1667a876"><path d=" M 17.427595703125 -0.8726007885050633 L 29.179309641394752 -0.8726007885050633 L 29.179309641394752 3.7330768353800634 L 17.427595703125 3.7330768353800634 Z"></path></clipPath></defs></svg>